<svg width="24.000000" height="24.000000" viewBox="0 0 24 24" fill="none" xmlns="http://www.w3.org/2000/svg" xmlns:xlink="http://www.w3.org/1999/xlink">
	<desc>
			Created with Pixso.
	</desc>
	<defs/>
	<circle id="Ellipse 36" cx="12.000000" cy="12.000000" r="12.000000" fill="#FF1079" fill-opacity="1.000000"/>
	<path id="Текст внутри поля сл" d="M12.68 5.5L10.99 5.5L11.31 12.91L12.35 12.91L12.68 5.5ZM11.18 14.55C11 14.73 10.9 14.95 10.9 15.21C10.9 15.48 11 15.71 11.18 15.89C11.36 16.07 11.59 16.17 11.85 16.17C12.11 16.17 12.32 16.07 12.51 15.89C12.7 15.7 12.8 15.48 12.8 15.21C12.8 14.95 12.7 14.73 12.51 14.55C12.32 14.36 12.11 14.27 11.85 14.27Q11.62 14.27 11.44 14.36Q11.29 14.43 11.18 14.55Z" fill="#1F2229" fill-opacity="1.000000" fill-rule="evenodd"/>
</svg>
