<svg width="12.000000" height="12.000000" viewBox="0 0 12 12" fill="none" xmlns="http://www.w3.org/2000/svg" xmlns:xlink="http://www.w3.org/1999/xlink">
	<desc>
			Created with Pixso.
	</desc>
	<defs/>
	<circle id="Ellipse 36" cx="6.000000" cy="6.000000" r="6.000000" fill="#FF4D6C" fill-opacity="1.000000"/>
	<path id="Текст внутри поля сл" d="M6.53 2L5.56 2L5.75 6.23L6.34 6.23L6.53 2ZM5.67 7.17C5.57 7.27 5.51 7.4 5.51 7.55C5.51 7.7 5.57 7.83 5.67 7.94C5.77 8.04 5.9 8.09 6.06 8.09Q6.15 8.09 6.22 8.07Q6.34 8.03 6.43 7.93C6.54 7.83 6.6 7.7 6.6 7.55C6.6 7.4 6.54 7.27 6.43 7.17C6.33 7.06 6.2 7.01 6.06 7.01Q5.93 7.01 5.82 7.06Q5.74 7.1 5.67 7.17Z" fill="#661422" fill-opacity="1.000000" fill-rule="evenodd"/>
</svg>
