<?xml version="1.0" encoding="UTF-8"?>
<!DOCTYPE svg PUBLIC "-//W3C//DTD SVG 1.1//EN" "http://www.w3.org/Graphics/SVG/1.1/DTD/svg11.dtd">
<svg xmlns="http://www.w3.org/2000/svg" version="1.1" width="512px" height="512px" style="shape-rendering:geometricPrecision; text-rendering:geometricPrecision; image-rendering:optimizeQuality; fill-rule:evenodd; clip-rule:evenodd" xmlns:xlink="http://www.w3.org/1999/xlink">
<g><path style="opacity:0.985" fill="#fefffe" d="M 511.5,352.5 C 511.5,353.5 511.5,354.5 511.5,355.5C 492.035,374.465 472.701,393.632 453.5,413C 452.5,413.667 451.5,413.667 450.5,413C 385.653,347.986 320.653,283.153 255.5,218.5C 190.347,283.153 125.347,347.986 60.5,413C 59.5,413.667 58.5,413.667 57.5,413C 38.2986,393.632 18.9653,374.465 -0.5,355.5C -0.5,354.5 -0.5,353.5 -0.5,352.5C 84.8124,267.521 170.146,182.521 255.5,97.5C 340.854,182.521 426.188,267.521 511.5,352.5 Z"/></g>
</svg>
